<svg id="Camada_1" data-name="Camada 1" xmlns="http://www.w3.org/2000/svg" viewBox="0 0 130 130"><defs><style>.cls-1{fill:#333;}</style></defs><g id="Grupo_37" data-name="Grupo 37"><path id="Caminho_99" data-name="Caminho 99" class="cls-1" d="M118.75,41.79c-.67-1.68-2.81-6.32-7.77-6.32H91.29V25.63c0-3.63-1.94-9.85-9.19-9.85H32.23c-5.06,0-9.84,5.33-9.84,9.85v3.28H6a3.28,3.28,0,0,0-.11,6.56H38.79a3.28,3.28,0,1,1,0,6.56H12.54a3.28,3.28,0,0,0,0,6.56H29a3.29,3.29,0,0,1,0,6.57H15.82a3.28,3.28,0,1,0,0,6.56h36.1a3.28,3.28,0,1,1,0,6.56H19.11a3.28,3.28,0,1,0,0,6.56h3.28v23A6.05,6.05,0,0,0,26,103.32a20.88,20.88,0,0,1-.37-3.87,21.33,21.33,0,1,1,42.06,4.92h7.75a21.33,21.33,0,1,1,41.47,0h3.87a7.05,7.05,0,0,0,6.56-6.56V91.25H124.1a3.28,3.28,0,1,1,0-6.56h3.29V74.84ZM101.14,65V48.58h13.12l6.56,26.26c-15.58.21-19.68-9.84-19.68-9.84Z"/><path id="Caminho_100" data-name="Caminho 100" class="cls-1" d="M96.22,84.69A14.77,14.77,0,1,0,111,99.45h0A14.76,14.76,0,0,0,96.22,84.69Zm0,21.32a6.56,6.56,0,1,1,6.55-6.56h0A6.56,6.56,0,0,1,96.22,106Z"/><path id="Caminho_101" data-name="Caminho 101" class="cls-1" d="M47,84.69A14.77,14.77,0,1,0,61.76,99.45h0A14.76,14.76,0,0,0,47,84.69ZM47,106a6.56,6.56,0,1,1,6.55-6.56h0A6.56,6.56,0,0,1,47,106Z"/></g></svg>