<svg id="Camada_1" data-name="Camada 1" xmlns="http://www.w3.org/2000/svg" viewBox="0 0 190 190"><defs><style>.cls-1{fill:#ee0370;}.cls-2{isolation:isolate;}.cls-3{fill:#fff;}</style></defs><circle id="Elipse_17" data-name="Elipse 17" class="cls-1" cx="95" cy="95" r="92"/><g class="cls-2"><path class="cls-3" d="M70.08,44.64c6,0,9.07,3.59,9.07,9.86v1.23H73.33V54.11c0-2.8-1.12-3.87-3.08-3.87s-3.08,1.07-3.08,3.87c0,8.06,12,9.57,12,20.77,0,6.28-3.14,9.86-9.19,9.86s-9.18-3.58-9.18-9.86v-2.4h5.82v2.8c0,2.8,1.24,3.8,3.2,3.8s3.19-1,3.19-3.8c0-8.07-12-9.58-12-20.78C61,48.23,64.09,44.64,70.08,44.64Z"/><path class="cls-3" d="M88.9,61.61h8.45v5.6H88.9V78.69H99.54v5.6H82.74V45.09h16.8v5.6H88.9Z"/><path class="cls-3" d="M116.39,72.92l4.2-27.83h8.57v39.2h-5.82V56.18l-4.26,28.11h-5.82l-4.6-27.72V84.29h-5.37V45.09h8.57Z"/></g><g class="cls-2"><path class="cls-3" d="M34.8,113.51h8v5.6h-8v16.18H28.64V96.09h16.3v5.6H34.8Z"/><path class="cls-3" d="M47.4,105.5c0-6.27,3.3-9.86,9.35-9.86s9.35,3.59,9.35,9.86v20.38c0,6.28-3.3,9.86-9.35,9.86s-9.35-3.58-9.35-9.86Zm6.16,20.78c0,2.8,1.23,3.86,3.19,3.86s3.19-1.06,3.19-3.86V105.11c0-2.8-1.23-3.87-3.19-3.87s-3.19,1.07-3.19,3.87Z"/><path class="cls-3" d="M83,135.29c-.34-1-.56-1.62-.56-4.81v-6.16c0-3.64-1.23-5-4-5H76.24v16H70.08V96.09h9.3c6.38,0,9.12,3,9.12,9v3.08c0,4-1.28,6.66-4,8,3.08,1.29,4.09,4.26,4.09,8.34v6a11.61,11.61,0,0,0,.67,4.76Zm-6.72-33.6v12h2.41c2.29,0,3.69-1,3.69-4.14v-3.87c0-2.8-1-4-3.13-4Z"/><path class="cls-3" d="M105.64,123.92l4.2-27.83h8.57v39.2h-5.83V107.18l-4.25,28.11H102.5l-4.59-27.72v27.72H92.54V96.09h8.56Z"/><path class="cls-3" d="M122.38,105.5c0-6.27,3.31-9.86,9.35-9.86s9.36,3.59,9.36,9.86v20.38c0,6.28-3.31,9.86-9.36,9.86s-9.35-3.58-9.35-9.86Zm6.16,20.78c0,2.8,1.23,3.86,3.19,3.86s3.2-1.06,3.2-3.86V105.11c0-2.8-1.24-3.87-3.2-3.87s-3.19,1.07-3.19,3.87Z"/><path class="cls-3" d="M145.06,96.09h6.16v33.6h10.14v5.6h-16.3Z"/></g></svg>