<svg id="Camada_1" data-name="Camada 1" xmlns="http://www.w3.org/2000/svg" viewBox="0 0 80 80"><defs><style>.cls-1{fill:#fff;}</style></defs><g id="Grupo_3" data-name="Grupo 3"><path id="Caminho_11" data-name="Caminho 11" class="cls-1" d="M59.81,45.45c0,5.39-5.32,10.55-8.34,13.19-5.07,4-10,6.2-11.47,6.54a37,37,0,0,1-11.35-6.54c-3.14-2.64-8.46-7.8-8.46-13.19V21.7a52.66,52.66,0,0,0,19.81-6,50.12,50.12,0,0,0,19.81,6.09ZM64.4,17.23A44.77,44.77,0,0,1,40,10a45.65,45.65,0,0,1-24.76,7.23V45.45C15.24,58.53,35.29,70,40,70S64.76,58.53,64.76,45.45V17.23Z"/><path id="Caminho_12" data-name="Caminho 12" class="cls-1" d="M54.66,27.78c-2.15,1-12.76,13.11-18.5,18.77l-4.4-4.39c-.52-.61-1.61-2.53-2.66-1.28l-1.61,2.33c-1,1.25.07,3.3.89,3.94l7.08,8.16c.82.64,2.34.15,3.38-1.1l.89-1.06h0L56.22,29.62C57.26,28.37,59.71,25.56,54.66,27.78Z"/></g></svg>