<svg id="Camada_1" data-name="Camada 1" xmlns="http://www.w3.org/2000/svg" viewBox="0 0 80 80"><defs><style>.cls-1{fill:#fff;}</style></defs><g id="Grupo_2" data-name="Grupo 2"><g id="Grupo_1" data-name="Grupo 1"><path id="Caminho_1" data-name="Caminho 1" class="cls-1" d="M40,45.21a13.82,13.82,0,0,1-10.21-4.77c-8.25-9.28-6.8-28.75-6.74-29.57A1,1,0,0,1,24,10H56a1,1,0,0,1,.95.87c.06.82,1.51,20.29-6.74,29.57A13.77,13.77,0,0,1,40,45.21ZM24.93,11.89c-.18,3.88-.46,19.68,6.31,27.29a11.33,11.33,0,0,0,16,1.57,11.09,11.09,0,0,0,1.57-1.57c6.77-7.62,6.49-23.41,6.31-27.29Z"/><path id="Caminho_2" data-name="Caminho 2" class="cls-1" d="M29.05,38.81c-6.55,0-11.43-2-14.5-5.87-5.6-7.08-3.12-17.85-3-18.3a.94.94,0,0,1,.92-.73H23.91a.95.95,0,0,1,0,1.89H13.23c-.43,2.46-1.45,10.61,2.8,16,2.7,3.41,7.08,5.14,13,5.14a.95.95,0,1,1,0,1.89Z"/><path id="Caminho_3" data-name="Caminho 3" class="cls-1" d="M51,38.81a.95.95,0,0,1,0-1.89c5.94,0,10.32-1.73,13-5.14,4.24-5.37,3.23-13.52,2.8-16H56.09a.95.95,0,1,1,0-1.89H67.54a.94.94,0,0,1,.92.73c.11.45,2.59,11.22-3,18.3C62.38,36.83,57.5,38.81,51,38.81Z"/><path id="Caminho_4" data-name="Caminho 4" class="cls-1" d="M44.16,52.74H35.83a.94.94,0,0,1-.94-.94h0V43.48a.95.95,0,1,1,1.89-.06v7.43h6.44V43.48a.95.95,0,1,1,1.89,0v8.31a.94.94,0,0,1-.94,1Z"/><path id="Caminho_5" data-name="Caminho 5" class="cls-1" d="M31.23,59.47a.94.94,0,0,1-.94-.94h0a7.69,7.69,0,0,1,5.3-7.64.94.94,0,0,1,.5,1.82,5.77,5.77,0,0,0-3.91,5.82,1,1,0,0,1-.94.95Z"/><path id="Caminho_6" data-name="Caminho 6" class="cls-1" d="M48.76,59.47a.94.94,0,0,1-.94-.95h0a5.8,5.8,0,0,0-3.9-5.81,1,1,0,0,1-.66-1.17.94.94,0,0,1,1.16-.66,7.69,7.69,0,0,1,5.3,7.64,1,1,0,0,1-.95.95Z"/><path id="Caminho_7" data-name="Caminho 7" class="cls-1" d="M53.15,64.73H26.85a.94.94,0,0,1-.94-.94h0V58.52a.94.94,0,0,1,.94-.94h26.3a.94.94,0,0,1,.94.94h0v5.27a.94.94,0,0,1-.94.94ZM27.8,62.84H52.2V59.47H27.8Z"/><path id="Caminho_8" data-name="Caminho 8" class="cls-1" d="M62.15,70H17.85a.94.94,0,0,1-.94-.94h0V63.79a1,1,0,0,1,.94-.95h44.3a1,1,0,0,1,.94.95h0v5.27a.94.94,0,0,1-.94.94ZM18.8,68.11H61.2V64.73H18.8Z"/></g><path id="Caminho_9" data-name="Caminho 9" class="cls-1" d="M35.5,32.94a1,1,0,0,1-.94-.95.92.92,0,0,1,0-.29l1.51-4.63-4-2.87a.95.95,0,0,1,.56-1.71h4.87l1.51-4.63a1,1,0,0,1,1.19-.62,1,1,0,0,1,.61.62l1.5,4.63h4.87a.95.95,0,0,1,.56,1.71l-3.94,2.86,1.5,4.64a.94.94,0,0,1-.6,1.19,1,1,0,0,1-.85-.14L40,29.89l-3.94,2.86A1,1,0,0,1,35.5,32.94ZM40,27.78a.94.94,0,0,1,.56.18l2.14,1.56L41.88,27a.94.94,0,0,1,.34-1.06l2.15-1.55H41.72a1,1,0,0,1-.9-.66L40,21.21l-.82,2.52a1,1,0,0,1-.9.66H35.63l2.14,1.55A.93.93,0,0,1,38.12,27l-.82,2.52L39.44,28a.94.94,0,0,1,.56-.18Z"/></g></svg>