<svg id="Camada_1" data-name="Camada 1" xmlns="http://www.w3.org/2000/svg" viewBox="0 0 130 130"><defs><style>.cls-1{fill:#333;}</style></defs><g id="Grupo_39" data-name="Grupo 39"><path id="Caminho_102" data-name="Caminho 102" class="cls-1" d="M96.46,83.28A37,37,0,0,1,86,81.76C81.27,97.31,70.62,106.68,51.73,113c-27.1-9-37.27-24.32-37.27-55.37,0-.49.16-1.47.32-2.74a128.51,128.51,0,0,0,.88-28.47c14-4.39,26.11-6.45,37.47-6.45a95.25,95.25,0,0,1,15.54,1.34,37.2,37.2,0,0,1,12-8.94C55.65,6,33,8.09,3.27,18.74c3.73,18.63,0,35.12,0,38.84,0,33.66,11.19,55.91,48.46,67.09,26.79-8,40.06-21.82,45.43-41.43C96.92,83.25,96.69,83.28,96.46,83.28Z"/><path id="Caminho_103" data-name="Caminho 103" class="cls-1" d="M72.58,74.59C70,86,63.85,92.27,51.73,97.1V34.87c.46,0,.93,0,1.4,0,2.56,0,5.1.16,7.66.4a37,37,0,0,1,3-7.14,88.5,88.5,0,0,0-10.66-.72,109.86,109.86,0,0,0-29.65,4.47,144.29,144.29,0,0,1-1.3,24s-.24,1.81-.27,2.1c.05,27,7.67,39.2,29.82,47.17C67.06,99.55,75.42,92,79.14,79A36.11,36.11,0,0,1,72.58,74.59Z"/><g id="Grupo_38" data-name="Grupo 38"><path id="Caminho_104" data-name="Caminho 104" class="cls-1" d="M96.46,16.19A29.82,29.82,0,1,0,126.27,46h0A29.82,29.82,0,0,0,96.46,16.19ZM93,60.45l-14.91-15,7.45-7.38L93,49.27l16.77-14.36,5.59,6.91Z"/></g></g></svg>