<svg id="Camada_1" data-name="Camada 1" xmlns="http://www.w3.org/2000/svg" viewBox="0 0 130 130"><defs><style>.cls-1{fill:none;stroke:#ee0370;stroke-linecap:round;stroke-linejoin:round;stroke-width:4.61px;}</style></defs><g id="Grupo_31" data-name="Grupo 31"><path id="Caminho_80" data-name="Caminho 80" class="cls-1" d="M2.8,90.34H18.93c11.51,0,16.76-2.3,21.22-2.3a3.92,3.92,0,0,1,1.57.4c5.07,2.3,2.55,5.45,2.55,11.12,0,21.93,14.55,23,17.47,23,7.35,0,14.78-5,14.78-16.13a17.47,17.47,0,0,0-3.38-10.6A5.32,5.32,0,0,1,72.22,94,4.78,4.78,0,0,1,75,88.43a4.28,4.28,0,0,1,1.57-.4c4.46,0,9.21,2.3,20.73,2.3h30"/><path id="Caminho_81" data-name="Caminho 81" class="cls-1" d="M85.73,16.62S53.48,66.15,53.48,99.55c0,10.51,3.94,13.83,8.26,13.83,3.6,0,5.56-2.3,5.56-6.91,0-6.43-4.6-4.7-4.6-16.13,0-32.4,23-73.72,23-73.72"/><path id="Caminho_82" data-name="Caminho 82" class="cls-1" d="M69.61,78.24a7.27,7.27,0,0,1-7.38,5.19c-5.56,0-13.36-5-13.36-16.13,0-3.36,1.21-7.29,4.46-9.21"/><path id="Caminho_83" data-name="Caminho 83" class="cls-1" d="M63.18,37.74c-3.25,1.92-5.09,7-5.09,11.13C58.09,60,65.88,65,71.45,65c5.36,0,7.37-2.3,7.37-5.19a5,5,0,0,0-3-4.8"/><path id="Caminho_84" data-name="Caminho 84" class="cls-1" d="M83.43,36.49A5.1,5.1,0,0,1,85.73,41c0,3.41-2.78,5.57-6.91,5.57-7.87,0-17.57-20.74,0-39.17"/><path id="Caminho_85" data-name="Caminho 85" class="cls-1" d="M71.91,9.71l6.91-2.3V15"/></g></svg>