<svg xmlns="http://www.w3.org/2000/svg" xmlns:xlink="http://www.w3.org/1999/xlink" viewBox="0 0 500 500"><defs><style>.cls-1{fill:none;}.cls-2{isolation:isolate;}.cls-3{clip-path:url(#clip-path);}.cls-4{mix-blend-mode:lighten;}.cls-5{fill:url(#Gradiente_sem_nome_4);}.cls-6{fill:#0a0203;}.cls-6,.cls-7{fill-rule:evenodd;}.cls-7,.cls-8{fill:#ec0086;}.cls-9{fill:#fff;}</style><clipPath id="clip-path"><rect class="cls-1" x="-3.39" y="-3.9" width="507.1" height="507.1"/></clipPath><radialGradient id="Gradiente_sem_nome_4" cx="-1637.86" cy="687.31" r="0.65" gradientTransform="matrix(382.05, -52.45, -52.52, -382.21, 662110.04, 177037.42)" gradientUnits="userSpaceOnUse"><stop offset="0" stop-color="#38001d"/><stop offset="0.63" stop-color="#110009"/><stop offset="1"/></radialGradient></defs><g class="cls-2"><g id="Camada_1" data-name="Camada 1"><rect x="-3.55" y="-3.55" width="507.1" height="507.1"/><g class="cls-3"><g id="Grupo_28" data-name="Grupo 28" class="cls-4"><path id="Caminho_66" data-name="Caminho 66" class="cls-5" d="M301.48,9.9C163.2-20.08,27.8,63.06-.93,195.59S59.16,459.86,197.45,489.84s273.68-53.17,302.41-185.7S439.77,39.87,301.48,9.9Z"/></g></g><g id="Grupo_29" data-name="Grupo 29"><path id="Caminho_67" data-name="Caminho 67" class="cls-6" d="M249.29,171.42a60.65,60.65,0,1,1-60.65,60.65,60.65,60.65,0,0,1,60.65-60.65h0"/><path id="Caminho_68" data-name="Caminho 68" class="cls-7" d="M249.47,169.78a74.66,74.66,0,1,1-74.66,74.66h0a74.67,74.67,0,0,1,74.66-74.66"/><path id="Caminho_69" data-name="Caminho 69" class="cls-8" d="M289.66,170.93a82.7,82.7,0,0,0-25.42-9l.57-3.2a86,86,0,0,1,26.41,9.31Z"/><path id="Caminho_70" data-name="Caminho 70" class="cls-8" d="M170.2,218.49l-3.09-1a86.4,86.4,0,0,1,67-58.66l.58,3.19a83.17,83.17,0,0,0-64.45,56.47"/><path id="Caminho_71" data-name="Caminho 71" class="cls-8" d="M249.59,330.72a86.56,86.56,0,0,1-45.84-13.1l1.72-2.76a83.42,83.42,0,0,0,105.64-14.48l2.39,2.19a86.86,86.86,0,0,1-63.91,28.15"/><path id="Caminho_72" data-name="Caminho 72" class="cls-8" d="M334.5,261.4l-3.18-.65a84.08,84.08,0,0,0-2.6-43.06l3.08-1a87.27,87.27,0,0,1,2.7,44.74"/><path id="Caminho_73" data-name="Caminho 73" class="cls-8" d="M249.47,341a95.77,95.77,0,0,1-58.39-19.64l2-2.58a93.5,93.5,0,0,0,84.83,14.57l1,3.09A96.43,96.43,0,0,1,249.47,341"/><path id="Caminho_74" data-name="Caminho 74" class="cls-8" d="M333.54,292.07l-2.81-1.61A93.4,93.4,0,0,0,315.47,178l2.29-2.3a96.63,96.63,0,0,1,15.78,116.39"/><path id="Caminho_75" data-name="Caminho 75" class="cls-8" d="M156.49,271.08a96.77,96.77,0,0,1,10.44-77.39l2.77,1.7a93.52,93.52,0,0,0-10.09,74.79Z"/><path id="Caminho_76" data-name="Caminho 76" class="cls-7" d="M249.47,171a74.66,74.66,0,1,1-74.66,74.66A74.65,74.65,0,0,1,249.47,171"/><path id="Caminho_77" data-name="Caminho 77" class="cls-9" d="M296.91,278.58c0,3.35,1.76,5.27,5,5.27s5-1.92,5-5.27v-10.9c0-3.36-1.77-5.27-5-5.27s-5,1.91-5,5.27Zm3.3-11.12c0-1.5.65-2.06,1.7-2.06s1.71.57,1.71,2.06v11.33c0,1.5-.66,2.06-1.71,2.06s-1.7-.57-1.7-2.06Zm-8.72,16.15h3.29v-21h-3.29Zm-7.16-18c1.17,0,1.68.66,1.68,2.15v2.07c0,1.68-.75,2.22-2,2.22h-1.29v-6.44Zm5.36,18a6.32,6.32,0,0,1-.36-2.55v-3.23c0-2.19-.54-3.78-2.18-4.47,1.46-.68,2.15-2.1,2.15-4.25v-1.65c0-3.23-1.46-4.82-4.88-4.82h-5v21h3.3v-8.54h1.14c1.5,0,2.15.72,2.15,2.67V281a6.63,6.63,0,0,0,.3,2.58Zm-17.07-25.4-2,3.32h2.22l3.06-3.32Zm-5.3,20.36c0,3.36,1.77,5.28,5,5.28s5-1.92,5-5.28v-10.9c0-3.35-1.77-5.27-5-5.27s-5,1.92-5,5.27Zm3.3-11.11c0-1.5.66-2.06,1.71-2.06s1.71.57,1.71,2.06v11.33c0,1.5-.66,2.06-1.71,2.06s-1.71-.57-1.71-2.06ZM256,265.64h3.44v18h3.29v-18h3.45v-3H256Zm-6.5.71,1.58,10.6h-3.17Zm2.57-3.71h-4.82l-3.36,21h3l.57-3.8h4l.57,3.8h3.32Zm-14,12.28h1.5v3.86c0,1.5-.65,2-1.7,2s-1.71-.54-1.71-2V267.46c0-1.5.66-2.06,1.71-2.06s1.7.57,1.7,2.06v2.25h3.12v-2c0-3.35-1.68-5.27-4.91-5.27s-4.91,1.92-4.91,5.27v10.9c0,3.36,1.67,5.28,4.91,5.28s4.91-1.92,4.91-5.28v-6.64H238Zm-10.64,8.69h3.3v-21h-3.3Zm-7.16-18c1.17,0,1.68.66,1.68,2.15v2.07c0,1.68-.75,2.22-2,2.22h-1.29v-6.44Zm5.36,18a6.32,6.32,0,0,1-.36-2.55v-3.23c0-2.19-.54-3.78-2.18-4.47,1.46-.68,2.15-2.1,2.15-4.25v-1.65c0-3.23-1.46-4.82-4.88-4.82h-5v21h3.29v-8.54h1.14c1.5,0,2.16.72,2.16,2.67V281a6.45,6.45,0,0,0,.3,2.58Zm-17.52-18c1.17,0,1.68.66,1.68,2.15V269c0,1.68-.75,2.22-2,2.22h-1.28v-5.54Zm-.12,8.53c1.5,0,2.13.6,2.13,2.55v1.83c0,1.55-.6,2.06-1.71,2.06h-1.88v-6.44Zm.21-11.53h-5v21h5.18c3.3,0,5-1.74,5-5v-1.71c0-2.22-.69-3.8-2.46-4.49,1.47-.69,2.13-2.07,2.13-4.23v-.75c0-3.23-1.46-4.81-4.88-4.81Zm-17.1,15.94c0,3.35,1.77,5.27,5,5.27s5-1.92,5-5.27v-10.9c0-3.36-1.77-5.27-5-5.27s-5,1.91-5,5.27Zm3.3-11.12c0-1.5.65-2.06,1.7-2.06s1.71.57,1.71,2.06v11.33c0,1.5-.66,2.06-1.71,2.06s-1.7-.57-1.7-2.06Z"/><path id="Caminho_78" data-name="Caminho 78" class="cls-9" d="M293.74,258.2c13.54,0,21.33-9.23,21.33-22.9,0-13.49-8.05-23-21.33-23s-21.27,9.35-21.27,23,7.72,22.9,21.27,22.9m0-38c8.31,0,12.23,6.28,12.23,15,0,9-3.92,15.25-12.23,15.25s-12.18-6.55-12.18-15.25S285.43,220.24,293.74,220.24Zm-43,30.43c-5.83,0-8.84-2.36-9.16-7.07h-8.84c.26,9.69,6.22,14.6,18,14.6,11.26,0,17.15-4.32,17.67-13q.39-8.44-7.07-11a102,102,0,0,0-10.6-3.08c-5.82-1.31-8.64-3.34-8.64-6.15.2-3.4,2.56-5.17,7.27-5.23,3.86,0,6.54,1.24,8.05,3.8a4.27,4.27,0,0,0,4.06,2.61h5.1c-.53-9.22-6-13.81-16.43-13.81-11-.06-16.56,4.52-16.75,13.88,0,5.89,4.32,10,13,12.17,3.21.85,6.22,1.64,8.83,2.42s4.06,2.23,4.06,4.39c.07,3.66-2.74,5.49-8.57,5.49Zm-32.26,6.88h9.1v-44.5h-4.52c-3.08,0-4.58,1.63-4.58,4.77Zm-34.62-39.73v39.73h30.82v-8.19H193V213h-4.52A4.73,4.73,0,0,0,183.86,217.82Z"/><path id="Caminho_79" data-name="Caminho 79" class="cls-9" d="M305.38,212l.71-2.21a24.23,24.23,0,0,1,3.6,1.51c-.2-1.88-.3-3.18-.31-3.88h2.27a36.15,36.15,0,0,1-.36,3.87,27.3,27.3,0,0,1,3.68-1.5l.72,2.21a19.13,19.13,0,0,1-3.88.88,25.85,25.85,0,0,1,2.68,2.95l-1.87,1.33c-.77-1.09-1.48-2.21-2.14-3.36a26.08,26.08,0,0,1-2,3.36l-1.84-1.33a31.61,31.61,0,0,1,2.58-3c-1.34-.26-2.61-.55-3.82-.87"/></g></g></g></svg>