<svg id="Camada_1" data-name="Camada 1" xmlns="http://www.w3.org/2000/svg" viewBox="0 0 450 450"><defs><style>.cls-1{fill:#9388c0;}</style></defs><g id="Grupo_26" data-name="Grupo 26"><g id="Grupo_10" data-name="Grupo 10"><g id="Grupo_6" data-name="Grupo 6"><path id="Caminho_14" data-name="Caminho 14" class="cls-1" d="M100.48,132.08,82.56,163.14l-.08.13h-36l-18-31.18,17.93-31,.07-.13h36Zm-71.41,0,17.7,30.67H82.18l17.71-30.67L82.18,101.42H46.78Z"/><path id="Caminho_15" data-name="Caminho 15" class="cls-1" d="M154,101.16l-17.93,31.05-.07.13H100L82,101.16l17.93-31L100,70h36Zm-71.41,0,17.7,30.67h35.41l17.71-30.67L135.7,70.5H100.28Z"/><path id="Caminho_16" data-name="Caminho 16" class="cls-1" d="M154,163.11l-17.93,31-.07.12H100L82,163.11l17.93-31.05.07-.13h36Zm-71.41,0,17.7,30.66h35.41l17.71-30.66-17.7-30.67H100.28Z"/><path id="Caminho_17" data-name="Caminho 17" class="cls-1" d="M207.5,132.18l-17.93,31.06-.08.13h-36l-18-31.18,17.93-31,.07-.13h36Zm-71.41,0,17.7,30.67H189.2l17.7-30.67-17.7-30.66H153.79Z"/></g><g id="Grupo_7" data-name="Grupo 7"><path id="Caminho_18" data-name="Caminho 18" class="cls-1" d="M207.5,70.19l-17.93,31.05-.08.13h-36l-18-31.18,17.93-31,.07-.13h36Zm-71.41,0,17.7,30.67H189.2l17.7-30.67L189.2,39.53H153.79Z"/><path id="Caminho_19" data-name="Caminho 19" class="cls-1" d="M261,39.27l-17.93,31-.07.13H207L189,39.27,206.92,8.22l.08-.13h36Zm-71.41,0L207.3,69.94h35.4l17.7-30.67L242.7,8.61H207.3Z"/><path id="Caminho_20" data-name="Caminho 20" class="cls-1" d="M261,101.21l-17.93,31.05-.07.13H207l-18-31.18,17.92-31L207,70h36Zm-71.41,0,17.71,30.67h35.4l17.7-30.67L242.7,70.55H207.3Z"/><path id="Caminho_21" data-name="Caminho 21" class="cls-1" d="M314.51,70.29l-17.93,31.05-.07.13h-36l-18-31.18,17.92-31.05.08-.13h36Zm-71.41,0L260.8,101h35.4l17.7-30.67L296.2,39.63H260.8Z"/></g><g id="Grupo_8" data-name="Grupo 8"><path id="Caminho_22" data-name="Caminho 22" class="cls-1" d="M154,224.92,136.06,256l-.07.13H100L82,224.92l17.93-31,.07-.12h36Zm-71.41,0,17.7,30.67h35.41l17.71-30.67-17.7-30.66H100.28Z"/><path id="Caminho_23" data-name="Caminho 23" class="cls-1" d="M207.5,194l-17.93,31.05-.07.13h-36L135.5,194,153.42,163l.08-.13h36Zm-71.41,0,17.7,30.67H189.2L206.9,194l-17.7-30.66H153.79Z"/><path id="Caminho_24" data-name="Caminho 24" class="cls-1" d="M207.5,256,189.57,287l-.07.12h-36L135.5,256l17.92-31,.08-.13h36Zm-71.41,0,17.7,30.66H189.2L206.9,256l-17.7-30.67H153.79Z"/><path id="Caminho_25" data-name="Caminho 25" class="cls-1" d="M261,225l-17.93,31-.07.13H207L189,225,206.92,194l.08-.12h36Zm-71.41,0,17.71,30.67h35.4L260.4,225l-17.7-30.66H207.3Z"/></g><g id="Grupo_9" data-name="Grupo 9"><path id="Caminho_26" data-name="Caminho 26" class="cls-1" d="M261,163l-17.93,31.05-.07.13H207L189,163,206.92,132l.08-.13h36Zm-71.41,0L207.3,193.7h35.4L260.4,163l-17.7-30.66H207.3Z"/><path id="Caminho_27" data-name="Caminho 27" class="cls-1" d="M314.51,132.11l-17.93,31-.07.13h-36l-18-31.18,17.92-31.05.08-.13h36Zm-71.41,0,17.7,30.66h35.4l17.7-30.66-17.7-30.67H260.8Z"/><path id="Caminho_28" data-name="Caminho 28" class="cls-1" d="M314.51,194.05l-17.93,31-.07.13h-36l-18-31.18L260.43,163l.08-.13h36Zm-71.41,0,17.7,30.67h35.4l17.7-30.67-17.7-30.66H260.8Z"/><path id="Caminho_29" data-name="Caminho 29" class="cls-1" d="M368,163.13l-17.93,31.05-.07.13H314l-18-31.18,17.93-31L314,132h36Zm-71.41,0,17.7,30.67h35.41l17.7-30.67-17.7-30.66h-35.4Z"/></g></g><g id="Grupo_15" data-name="Grupo 15"><g id="Grupo_11" data-name="Grupo 11"><path id="Caminho_30" data-name="Caminho 30" class="cls-1" d="M207.5,317.79l-17.93,31-.08.13h-36l-18-31.18,17.93-31.05.08-.13h36Zm-71.41,0,17.7,30.66H189.2l17.7-30.66-17.7-30.67H153.79Z"/><path id="Caminho_31" data-name="Caminho 31" class="cls-1" d="M261,286.87l-17.93,31.05-.07.13H207l-18-31.18,17.93-31.05.07-.13h36Zm-71.41,0,17.71,30.67h35.41l17.7-30.67-17.7-30.66H207.3Z"/><path id="Caminho_32" data-name="Caminho 32" class="cls-1" d="M261,348.81l-17.93,31.05L243,380H207l-18-31.18,17.92-31.05.08-.13h36Zm-71.41,0,17.71,30.67h35.41l17.7-30.67-17.7-30.66H207.3Z"/><path id="Caminho_33" data-name="Caminho 33" class="cls-1" d="M314.51,317.89l-17.93,31.05-.07.13h-36l-18-31.18,17.92-31.05.08-.13h36Zm-71.41,0,17.7,30.66h35.4l17.7-30.66-17.7-30.67H260.8Z"/></g><g id="Grupo_12" data-name="Grupo 12"><path id="Caminho_34" data-name="Caminho 34" class="cls-1" d="M368,286.92,350.08,318l-.07.13H314l-18-31.18,17.93-31.05.07-.13h36Zm-71.41,0,17.71,30.66h35.4l17.7-30.66-17.7-30.67h-35.4Z"/><path id="Caminho_35" data-name="Caminho 35" class="cls-1" d="M421.52,256l-17.93,31.05-.07.12h-36l-18-31.17L367.44,225l.08-.13h36Zm-71.41,0,17.7,30.66h35.41L420.92,256l-17.7-30.67H367.81Z"/></g><g id="Grupo_13" data-name="Grupo 13"><path id="Caminho_36" data-name="Caminho 36" class="cls-1" d="M261,410.63l-17.93,31.05-.07.13H207l-18-31.18,17.92-31.05.08-.13h36Zm-71.41,0,17.71,30.66h35.41l17.7-30.66L242.71,380H207.3Z"/><path id="Caminho_37" data-name="Caminho 37" class="cls-1" d="M368,410.73l-17.93,31-.07.13H314l-18-31.18,17.93-31.05.07-.13h36Zm-71.41,0,17.71,30.66h35.4l17.7-30.66-17.7-30.66h-35.4Z"/></g><g id="Grupo_14" data-name="Grupo 14"><path id="Caminho_38" data-name="Caminho 38" class="cls-1" d="M368,348.74l-17.93,31.05-.07.13H314l-18-31.18,17.93-31.05.07-.13h36Zm-71.41,0,17.71,30.66h35.4l17.7-30.66-17.7-30.67h-35.4Z"/><path id="Caminho_39" data-name="Caminho 39" class="cls-1" d="M421.52,317.81l-17.93,31.05-.07.13h-36l-18-31.18,17.92-31.05.08-.12h36Zm-71.41,0,17.7,30.67h35.41l17.7-30.67-17.7-30.66H367.81Z"/></g></g><g id="Grupo_20" data-name="Grupo 20"><g id="Grupo_16" data-name="Grupo 16"><path id="Caminho_40" data-name="Caminho 40" class="cls-1" d="M100.48,132.08,82.56,163.14l-.08.13h-36l-18-31.18,17.93-31,.07-.13h36Zm-71.41,0,17.7,30.67H82.18l17.71-30.67L82.18,101.42H46.78Z"/><path id="Caminho_41" data-name="Caminho 41" class="cls-1" d="M154,101.16l-17.93,31.05-.07.13H100L82,101.16l17.93-31L100,70h36Zm-71.41,0,17.7,30.67h35.41l17.71-30.67L135.7,70.5H100.28Z"/><path id="Caminho_42" data-name="Caminho 42" class="cls-1" d="M154,163.11l-17.93,31-.07.12H100L82,163.11l17.93-31.05.07-.13h36Zm-71.41,0,17.7,30.66h35.41l17.71-30.66-17.7-30.67H100.28Z"/><path id="Caminho_43" data-name="Caminho 43" class="cls-1" d="M207.5,132.18l-17.93,31.06-.08.13h-36l-18-31.18,17.93-31,.07-.13h36Zm-71.41,0,17.7,30.67H189.2l17.7-30.67-17.7-30.66H153.79Z"/></g><g id="Grupo_17" data-name="Grupo 17"><path id="Caminho_44" data-name="Caminho 44" class="cls-1" d="M207.5,70.19l-17.93,31.05-.08.13h-36l-18-31.18,17.93-31,.07-.13h36Zm-71.41,0,17.7,30.67H189.2l17.7-30.67L189.2,39.53H153.79Z"/><path id="Caminho_45" data-name="Caminho 45" class="cls-1" d="M261,39.27l-17.93,31-.07.13H207L189,39.27,206.92,8.22l.08-.13h36Zm-71.41,0L207.3,69.94h35.4l17.7-30.67L242.7,8.61H207.3Z"/><path id="Caminho_46" data-name="Caminho 46" class="cls-1" d="M261,101.21l-17.93,31.05-.07.13H207l-18-31.18,17.92-31L207,70h36Zm-71.41,0,17.71,30.67h35.4l17.7-30.67L242.7,70.55H207.3Z"/><path id="Caminho_47" data-name="Caminho 47" class="cls-1" d="M314.51,70.29l-17.93,31.05-.07.13h-36l-18-31.18,17.92-31.05.08-.13h36Zm-71.41,0L260.8,101h35.4l17.7-30.67L296.2,39.63H260.8Z"/></g><g id="Grupo_18" data-name="Grupo 18"><path id="Caminho_48" data-name="Caminho 48" class="cls-1" d="M154,224.92,136.06,256l-.07.13H100L82,224.92l17.93-31,.07-.12h36Zm-71.41,0,17.7,30.67h35.41l17.71-30.67-17.7-30.66H100.28Z"/><path id="Caminho_49" data-name="Caminho 49" class="cls-1" d="M207.5,194l-17.93,31.05-.07.13h-36L135.5,194,153.42,163l.08-.13h36Zm-71.41,0,17.7,30.67H189.2L206.9,194l-17.7-30.66H153.79Z"/><path id="Caminho_50" data-name="Caminho 50" class="cls-1" d="M207.5,256,189.57,287l-.07.12h-36L135.5,256l17.92-31,.08-.13h36Zm-71.41,0,17.7,30.66H189.2L206.9,256l-17.7-30.67H153.79Z"/><path id="Caminho_51" data-name="Caminho 51" class="cls-1" d="M261,225l-17.93,31-.07.13H207L189,225,206.92,194l.08-.12h36Zm-71.41,0,17.71,30.67h35.4L260.4,225l-17.7-30.66H207.3Z"/></g><g id="Grupo_19" data-name="Grupo 19"><path id="Caminho_52" data-name="Caminho 52" class="cls-1" d="M261,163l-17.93,31.05-.07.13H207L189,163,206.92,132l.08-.13h36Zm-71.41,0L207.3,193.7h35.4L260.4,163l-17.7-30.66H207.3Z"/><path id="Caminho_53" data-name="Caminho 53" class="cls-1" d="M314.51,132.11l-17.93,31-.07.13h-36l-18-31.18,17.92-31.05.08-.13h36Zm-71.41,0,17.7,30.66h35.4l17.7-30.66-17.7-30.67H260.8Z"/><path id="Caminho_54" data-name="Caminho 54" class="cls-1" d="M314.51,194.05l-17.93,31-.07.13h-36l-18-31.18L260.43,163l.08-.13h36Zm-71.41,0,17.7,30.67h35.4l17.7-30.67-17.7-30.66H260.8Z"/><path id="Caminho_55" data-name="Caminho 55" class="cls-1" d="M368,163.13l-17.93,31.05-.07.13H314l-18-31.18,17.93-31L314,132h36Zm-71.41,0,17.7,30.67h35.41l17.7-30.67-17.7-30.66h-35.4Z"/></g></g><g id="Grupo_25" data-name="Grupo 25"><g id="Grupo_21" data-name="Grupo 21"><path id="Caminho_56" data-name="Caminho 56" class="cls-1" d="M207.5,317.79l-17.93,31-.08.13h-36l-18-31.18,17.93-31.05.08-.13h36Zm-71.41,0,17.7,30.66H189.2l17.7-30.66-17.7-30.67H153.79Z"/><path id="Caminho_57" data-name="Caminho 57" class="cls-1" d="M261,286.87l-17.93,31.05-.07.13H207l-18-31.18,17.93-31.05.07-.13h36Zm-71.41,0,17.71,30.67h35.41l17.7-30.67-17.7-30.66H207.3Z"/><path id="Caminho_58" data-name="Caminho 58" class="cls-1" d="M261,348.81l-17.93,31.05L243,380H207l-18-31.18,17.92-31.05.08-.13h36Zm-71.41,0,17.71,30.67h35.41l17.7-30.67-17.7-30.66H207.3Z"/><path id="Caminho_59" data-name="Caminho 59" class="cls-1" d="M314.51,317.89l-17.93,31.05-.07.13h-36l-18-31.18,17.92-31.05.08-.13h36Zm-71.41,0,17.7,30.66h35.4l17.7-30.66-17.7-30.67H260.8Z"/></g><g id="Grupo_22" data-name="Grupo 22"><path id="Caminho_60" data-name="Caminho 60" class="cls-1" d="M368,286.92,350.08,318l-.07.13H314l-18-31.18,17.93-31.05.07-.13h36Zm-71.41,0,17.71,30.66h35.4l17.7-30.66-17.7-30.67h-35.4Z"/><path id="Caminho_61" data-name="Caminho 61" class="cls-1" d="M421.52,256l-17.93,31.05-.07.12h-36l-18-31.17L367.44,225l.08-.13h36Zm-71.41,0,17.7,30.66h35.41L420.92,256l-17.7-30.67H367.81Z"/></g><g id="Grupo_23" data-name="Grupo 23"><path id="Caminho_62" data-name="Caminho 62" class="cls-1" d="M261,410.63l-17.93,31.05-.07.13H207l-18-31.18,17.92-31.05.08-.13h36Zm-71.41,0,17.71,30.66h35.41l17.7-30.66L242.71,380H207.3Z"/><path id="Caminho_63" data-name="Caminho 63" class="cls-1" d="M368,410.73l-17.93,31-.07.13H314l-18-31.18,17.93-31.05.07-.13h36Zm-71.41,0,17.71,30.66h35.4l17.7-30.66-17.7-30.66h-35.4Z"/></g><g id="Grupo_24" data-name="Grupo 24"><path id="Caminho_64" data-name="Caminho 64" class="cls-1" d="M368,348.74l-17.93,31.05-.07.13H314l-18-31.18,17.93-31.05.07-.13h36Zm-71.41,0,17.71,30.66h35.4l17.7-30.66-17.7-30.67h-35.4Z"/><path id="Caminho_65" data-name="Caminho 65" class="cls-1" d="M421.52,317.81l-17.93,31.05-.07.13h-36l-18-31.18,17.92-31.05.08-.12h36Zm-71.41,0,17.7,30.67h35.41l17.7-30.67-17.7-30.66H367.81Z"/></g></g></g></svg>