<svg id="Camada_1" data-name="Camada 1" xmlns="http://www.w3.org/2000/svg" viewBox="0 0 130 130"><defs><style>.cls-1{fill:#333;}</style></defs><g id="Grupo_41" data-name="Grupo 41"><path id="Caminho_105" data-name="Caminho 105" class="cls-1" d="M64.73,3.22a62.18,62.18,0,0,0-.6,124.36,63.25,63.25,0,0,0,11.57-1V115.34a50.64,50.64,0,0,1-11,1.26A51.06,51.06,0,0,1,16.91,47.24a80.77,80.77,0,0,0,4.75,6.59c3.55,3.87,7.63,4.14,12,6.43,1.24.64,2.74-.13,3.38,1.4S36,65.12,35.69,66.6a12.8,12.8,0,0,0,1.8,8.49c5.82,8.25,2.77,13.36,3.73,22.56.27,2.68.8,9.95,4.75,10.45,6.67.85,9.15-8.12,11-12.93,1.69-4.37,4.58-8.88,6.57-13.47a14.33,14.33,0,0,1-5.8-19c-6.46-3-15.24-3.63-20-3.44-1.11,0-2.36-1.44-2.94-2.23s-1.07-2.93-1.8-3.24c-2-.84-5-3.75-5.38-5.93-.57-3.25,12.93-9.12,15.05-10.65,6.61-4.8,13.4-14.82,2.11-19a51,51,0,0,1,53,8.13A34.69,34.69,0,0,0,91,27.81a17.29,17.29,0,0,0-2.79,1c-1.85,1-8.17,9.8-3.4,9.39,10.82-.92-3.52,6.09-4.23,6.65-3.19,2.5-9.51,5.53-9.12,9.86.48,0,1,0,1.47.09a21.37,21.37,0,0,1,13.3,6.57,3.73,3.73,0,0,1,2.25,1.85c.16.35.26.72.39,1.07,1.37,1.66,2.72,3.5,4.15,5.57,3.84.54,8.34,1.11,12.65,1.66a8.25,8.25,0,0,1,3.21-3.68c.37-2.73.8-6.82,0-9.46,0,0-1-3.24.34-3,.16-.14,3.2-.21,5.56-.5a49,49,0,0,1,.49,17.82c3.62.48,6.58.89,8.39,1.23a19.89,19.89,0,0,1,2.42.6A61.76,61.76,0,0,0,74.78,4a62.71,62.71,0,0,0-10-.75Z"/><g id="Grupo_40" data-name="Grupo 40"><circle id="Elipse_14" data-name="Elipse 14" class="cls-1" cx="92.16" cy="122.09" r="5.49"/><circle id="Elipse_15" data-name="Elipse 15" class="cls-1" cx="110.45" cy="122.09" r="5.49"/><path id="Caminho_106" data-name="Caminho 106" class="cls-1" d="M121.69,84.78c-5.37-1-25-3.12-35-4.75-7.31-11-9.85-13.66-15-14.3s-6.3,6.34-.87,7c1.81.22,2.47-1.3,4-1.11,2.94.37,3.7,3.7,4.07,6l6.4,25.78C87.1,110.51,89.18,113,94,113c23,0,25.6,0,32.32-20.24C127.07,90.44,128.21,86,121.69,84.78Z"/></g></g></svg>