<svg id="Camada_1" data-name="Camada 1" xmlns="http://www.w3.org/2000/svg" viewBox="0 0 130 130"><defs><style>.cls-1{fill:none;stroke:#ee0370;stroke-linecap:round;stroke-linejoin:round;stroke-width:4.61px;}.cls-2{fill:#ee0370;}</style></defs><g id="Grupo_32" data-name="Grupo 32"><path id="Caminho_86" data-name="Caminho 86" class="cls-1" d="M2.8,85.73H18.92c11.52,0,16.77-2.3,21.23-2.3a4,4,0,0,1,1.56.4c5.08,2.3,2.56,5.45,2.56,11.12,0,21.93,14.55,23,17.47,23,7.36,0,14.78-5,14.78-16.13a17.47,17.47,0,0,0-3.38-10.6,5.32,5.32,0,0,1-.92-1.88A4.76,4.76,0,0,1,75,83.83a4.09,4.09,0,0,1,1.57-.4c4.46,0,9.21,2.3,20.73,2.3h30"/><path id="Caminho_87" data-name="Caminho 87" class="cls-1" d="M85.73,12S53.48,61.54,53.48,95c0,10.51,3.94,13.82,8.26,13.82,3.6,0,5.56-2.3,5.56-6.91,0-6.43-4.6-4.7-4.6-16.13,0-32.4,23-73.72,23-73.72"/><circle id="Elipse_4" data-name="Elipse 4" class="cls-2" cx="92.64" cy="60.39" r="4.61"/><circle id="Elipse_5" data-name="Elipse 5" class="cls-2" cx="28.14" cy="62.69" r="4.61"/><circle id="Elipse_6" data-name="Elipse 6" class="cls-2" cx="43.12" cy="73.06" r="3.46"/><circle id="Elipse_7" data-name="Elipse 7" class="cls-2" cx="77.67" cy="73.06" r="3.46"/><circle id="Elipse_8" data-name="Elipse 8" class="cls-2" cx="101.86" cy="76.52" r="3.46"/><circle id="Elipse_9" data-name="Elipse 9" class="cls-2" cx="119.14" cy="69.61" r="3.46"/><circle id="Elipse_10" data-name="Elipse 10" class="cls-2" cx="13.17" cy="75.36" r="3.46"/></g></svg>