<svg id="Camada_1" data-name="Camada 1" xmlns="http://www.w3.org/2000/svg" viewBox="0 0 130 130"><defs><style>.cls-1{fill:none;stroke:#ee0370;stroke-linecap:round;stroke-linejoin:round;stroke-width:4.61px;}</style></defs><g id="Grupo_34" data-name="Grupo 34"><path id="Caminho_90" data-name="Caminho 90" class="cls-1" d="M20.22,2.79C14.24,4.37,5.9,7.65,5.9,14.14c0,5.47,4.95,8.46,10,8.46,3.74,0,5.59-1.91,5.59-3.54s-2.84-2.7-4.39-2.7c-5.32,0-10.83,9.14-10.83,14.12,0,4,4.53,10.56,10.14,10.56,5.85,0,8.37-8.89.13-8.89-5,0-12.33,5.86-12.33,11.64C4.26,50.52,10.87,55,17.44,55c3.3,0,4.94-2,4.94-4.26,0-3.09-4.23-4.64-7.61-4.64-6.28,0-12,6.93-12,14.08,0,8.66,7.44,12.09,16.32,12.09,2.42,0,5.81.25,5.81-4,0-2.75-4-4.29-6.66-4.29-3.78,0-14,5.57-14,13.59,0,7.11,5,11.91,12.5,11.91,1.92,0,7.47.69,7.47-4.73,0-1.47-2.7-2.32-4.21-2.32-5.2,0-11.75,5.07-11.75,12.88,0,6.92,4.87,10.43,11.23,10.43,3.19,0,5.53-.42,5.53-3.6,0-2.64-1.83-3.68-4.42-3.68-6.7,0-14.53,7-14.53,14.45,0,6.73,7.08,11.14,13.05,11.14,3,0,6.66-.78,6.66-3.87a4.63,4.63,0,0,0-4.37-4.86h-.23c-5.42,0-11.57,4.31-11.57,10.21a8.91,8.91,0,0,0,.15,1.63"/><path id="Caminho_91" data-name="Caminho 91" class="cls-1" d="M54,2.79c-6,3.37-18.73,6.7-18.73,17.56,0,13,9.16,16.25,14.63,16.25,3.69,0,6-2.43,6-5,0-2.3-2.29-5.77-7.07-5.77-9.11,0-13.82,8.73-13.82,17.09,0,9.84,6.42,15.16,15.93,15.16,4.89,0,7.11-2.68,7.11-6.14,0-4.27-2.91-5.37-7.87-5.37-7,0-12.67,10.49-12.67,15.4,0,7,7,16.16,14.42,16.16,3,0,4.83-.81,4.83-3.67,0-3.54-2.47-6.2-7.1-6.2-7.75,0-14.06,8.36-14.06,15.48,0,6.78,3.2,13.64,14.1,13.64,3,0,7.62-1.12,7.62-5.63s-5.7-5.27-7.93-5.27c-8.5,0-12.5,10.33-12.5,16.19,0,6.56,3.32,13.57,11.13,13.57,3,0,7.93-1.54,7.93-5.54,0-2.06-4.78-3.63-7.52-3.63-5,0-8.14,2.77-8.14,8.36,0,4.25,2.15,8.57,5,11.78"/><path id="Caminho_92" data-name="Caminho 92" class="cls-1" d="M85.73,55.78,95,65l-9.22,9.21"/><line id="Linha_4" data-name="Linha 4" class="cls-1" x1="94.95" y1="65" x2="67.3" y2="65"/><path id="Caminho_93" data-name="Caminho 93" class="cls-1" d="M105.57,2.79a92.44,92.44,0,0,0-1.41,17.26c0,8.23,2.17,23.39,2.17,35.07,0,14.53-1.22,31.15-1.22,37.33,0,15.14-.23,21.74,0,34.55"/><path id="Caminho_94" data-name="Caminho 94" class="cls-1" d="M117.36,2.79c-2,7.07-2.35,9.59-2.35,25.35,0,12.22,1.44,23.51,1.44,46.07,0,13.5-1.47,18.82-1.47,32.32s.28,19.56.28,19.56a8.27,8.27,0,0,1-.07,1.11"/><path id="Caminho_95" data-name="Caminho 95" class="cls-1" d="M126.76,2.79C124.41,39.27,128,42,127,74.21c-.45,14.63-1.22,21.12-1,53"/></g></svg>