<svg id="Camada_1" data-name="Camada 1" xmlns="http://www.w3.org/2000/svg" viewBox="0 0 130 130"><defs><style>.cls-1{fill:#333;}</style></defs><g id="Grupo_36" data-name="Grupo 36"><path id="Caminho_96" data-name="Caminho 96" class="cls-1" d="M76.19,103.85H20.28V25.57H88.46c-.19,0-.17-5.34-.58-8.1C87,11.64,80.65,6,74.88,5.62c-21.37-1.56-30.27-1.77-51.34,0-5.77.48-12.77,6-13,11.86-1.43,34.18-1.9,60.27,0,93.33.39,6.76,3.18,13,8.8,13.62a244.69,244.69,0,0,0,58.88,0c5.63-.61,6.14-6.92,7.14-13.62,1.09-7.27,1.24-14.42,1.56-18.15H76.19ZM48.7,120.15a6.06,6.06,0,1,1,6.06-6.06h0a6.05,6.05,0,0,1-6,6.05Z"/><g id="Grupo_35" data-name="Grupo 35"><path id="Caminho_97" data-name="Caminho 97" class="cls-1" d="M120.92,40.48A7.47,7.47,0,0,0,113.46,33H50.1a7.47,7.47,0,0,0-7.45,7.45v3.73h78.27Z"/><path id="Caminho_98" data-name="Caminho 98" class="cls-1" d="M42.65,51.67V77.76a7.47,7.47,0,0,0,7.45,7.45h63.36a7.48,7.48,0,0,0,7.46-7.45V51.67ZM79.92,66.58H50.1V62.85H79.92Zm33.54,0H102.28V62.85h11.18Z"/></g></g></svg>