<svg id="Camada_1" data-name="Camada 1" xmlns="http://www.w3.org/2000/svg" viewBox="0 0 80 80"><defs><style>.cls-1{fill:#fff;}</style></defs><path id="Caminho_10" data-name="Caminho 10" class="cls-1" d="M59.7,34.06h-3V26.74a16.74,16.74,0,0,0-33.48,0h0v7.32h-3a1.73,1.73,0,0,0-1.73,1.73V68.27A1.74,1.74,0,0,0,20.3,70H59.7a1.72,1.72,0,0,0,1.73-1.73h0V35.79A1.72,1.72,0,0,0,59.7,34.06Zm-17,19.77v6.91a1.09,1.09,0,0,1-1.09,1.09H38.4a1.08,1.08,0,0,1-1.1-1.09h0V53.83a4.67,4.67,0,1,1,6.51-1.12,4.92,4.92,0,0,1-1.11,1.12Zm6-19.77H31.25V26.74a8.75,8.75,0,1,1,17.5,0h0Z"/></svg>