<svg id="Camada_1" data-name="Camada 1" xmlns="http://www.w3.org/2000/svg" viewBox="0 0 130 130"><defs><style>.cls-1{fill:none;stroke:#ee0370;stroke-linecap:round;stroke-linejoin:round;stroke-width:4.61px;}</style></defs><g id="Grupo_33" data-name="Grupo 33"><path id="Caminho_88" data-name="Caminho 88" class="cls-1" d="M2.8,85.73H18.93c11.51,0,16.76-2.3,21.22-2.3a4.11,4.11,0,0,1,1.57.41c5.07,2.3,2.55,5.44,2.55,11.11,0,21.93,14.55,23,17.47,23,7.35,0,14.78-5,14.78-16.12a17.44,17.44,0,0,0-3.38-10.6,5.4,5.4,0,0,1-.92-1.88A4.77,4.77,0,0,1,75,83.83a4.09,4.09,0,0,1,1.57-.4c4.46,0,9.21,2.3,20.73,2.3h30"/><path id="Caminho_89" data-name="Caminho 89" class="cls-1" d="M85.73,12S53.48,61.54,53.48,94.94c0,10.51,3.94,13.83,8.26,13.83,3.6,0,5.56-2.3,5.56-6.91,0-6.43-4.6-4.7-4.6-16.13,0-32.4,23-73.72,23-73.72"/><circle id="Elipse_11" data-name="Elipse 11" class="cls-1" cx="32.75" cy="60.39" r="13.82"/><circle id="Elipse_12" data-name="Elipse 12" class="cls-1" cx="53.48" cy="25.84" r="11.52"/><circle id="Elipse_13" data-name="Elipse 13" class="cls-1" cx="90.34" cy="62.7" r="11.52"/></g></svg>